<svg xmlns="http://www.w3.org/2000/svg" width="13.624" height="13.624" viewBox="0 0 13.624 13.624">
  <path id="icons8-instagram-24" d="M6.784,3A3.748,3.748,0,0,0,3,6.784V12.84a3.748,3.748,0,0,0,3.784,3.784H12.84a3.748,3.748,0,0,0,3.784-3.784V6.784A3.748,3.748,0,0,0,12.84,3Zm0,1.514H12.84A2.23,2.23,0,0,1,15.11,6.784V12.84A2.23,2.23,0,0,1,12.84,15.11H6.784A2.23,2.23,0,0,1,4.514,12.84V6.784A2.23,2.23,0,0,1,6.784,4.514Zm6.812.757a.715.715,0,0,0-.757.757.757.757,0,0,0,1.514,0A.715.715,0,0,0,13.6,5.271Zm-3.784.757A3.784,3.784,0,1,0,13.6,9.812,3.748,3.748,0,0,0,9.812,6.028Zm0,1.514A2.271,2.271,0,1,1,7.541,9.812,2.23,2.23,0,0,1,9.812,7.541Z" transform="translate(-3 -3)" fill="#457c77"/>
</svg>
